:FULLY-SPECIFIED
:FORCE-ALL-JOINTS-BE-3DOF
:DEGREES
1053
root 1.20727 15.165 32.5598 4.92288 -3.46039 363.357
lfemur 8.21704 0.563251 5.51882
ltibia 1.26037 0 0
lfoot -31.0058 -10.8138 0
ltoes -34.3648 0 0
rfemur -30.9615 -15.5499 -6.20758
rtibia 49.849 0 0
rfoot -22.0334 5.09842 0
rtoes -41.4786 0 0
lowerback -1.812 -0.109794 -0.155557
upperback -0.522414 -0.11316 -5.89985
thorax 0.467667 -0.0600311 -6.02732
lowerneck -7.14578 0.802309 6.32844
upperneck 1.57764 0.378389 3.61625
head 1.71454 0.324822 0.0793417
lclavicle 6.30459e-015 4.45903e-015 0
lhumerus -58.5627 -46.6086 115.419
lradius 55.7188 0 0
lwrist 25.4603 0 0
lhand 37.4148 25.128 0
lfingers 7.12502 0 0
lthumb 60.2197 38.6749 0
rclavicle 6.30459e-015 4.45903e-015 0
rhumerus 2.38374 -23.3795 0.423798
rradius 27.6017 0 0
rwrist -9.63213 0 0
rhand -30.7212 -42.1958 0
rfingers 7.12502 0 0
rthumb -4.01393 -792.137 0
1054
root 1.20913 15.1652 32.5635 4.92514 -3.46344 363.351
lfemur 8.21119 0.568177 5.51127
ltibia 1.29976 0 0
lfoot -31.0327 -10.8093 0
ltoes -34.3618 0 0
rfemur -30.9438 -15.5374 -6.21369
rtibia 49.8383 0 0
rfoot -22.0227 5.11193 0
rtoes -41.4433 0 0
lowerback -1.82319 -0.108441 -0.168916
upperback -0.522568 -0.110741 -5.89905
thorax 0.474084 -0.0587287 -6.01879
lowerneck -7.14347 0.799235 6.33048
upperneck 1.57562 0.374201 3.622
head 1.71339 0.322793 0.0806552
lclavicle 6.64759e-015 5.14503e-015 0
lhumerus -58.5611 -46.6152 115.425
lradius 55.717 0 0
lwrist 25.4647 0 0
lhand 37.4208 25.1333 0
lfingers 7.12502 0 0
lthumb 60.2248 38.6747 0
rclavicle 6.64759e-015 5.14503e-015 0
rhumerus 2.37228 -23.3661 0.427781
rradius 27.5992 0 0
rwrist -9.61374 0 0
rhand -30.7215 -42.1766 0
rfingers 7.12502 0 0
rthumb -4.01421 -792.118 0
1055
root 1.211 15.1653 32.5672 4.92739 -3.46648 363.345
lfemur 8.20534 0.573103 5.50372
ltibia 1.33915 0 0
lfoot -31.0595 -10.8047 0
ltoes -34.3588 0 0
rfemur -30.9262 -15.5249 -6.21981
rtibia 49.8275 0 0
rfoot -22.0121 5.12544 0
rtoes -41.4081 0 0
lowerback -1.83438 -0.107088 -0.182275
upperback -0.522721 -0.108321 -5.89825
thorax 0.480501 -0.0574263 -6.01027
lowerneck -7.14116 0.79616 6.33251
upperneck 1.57361 0.370014 3.62775
head 1.71225 0.320763 0.0819687
lclavicle 6.99059e-015 5.83103e-015 0
lhumerus -58.5595 -46.6218 115.431
lradius 55.7152 0 0
lwrist 25.4691 0 0
lhand 37.4268 25.1385 0
lfingers 7.12502 0 0
lthumb 60.2299 38.6745 0
rclavicle 6.99059e-015 5.83103e-015 0
rhumerus 2.36082 -23.3528 0.431763
rradius 27.5966 0 0
rwrist -9.59535 0 0
rhand -30.7218 -42.1573 0
rfingers 7.12502 0 0
rthumb -4.01449 -792.099 0
1056
root 1.21287 15.1655 32.5709 4.92965 -3.46952 363.339
lfemur 8.19949 0.57803 5.49617
ltibia 1.37853 0 0
lfoot -31.0864 -10.8001 0
ltoes -34.3558 0 0
rfemur -30.9086 -15.5124 -6.22593
rtibia 49.8168 0 0
rfoot -22.0014 5.13895 0
rtoes -41.3729 0 0
lowerback -1.84557 -0.105735 -0.195634
upperback -0.522875 -0.105902 -5.89745
thorax 0.486918 -0.0561238 -6.00174
lowerneck -7.13885 0.793085 6.33454
upperneck 1.57159 0.365826 3.6335
head 1.71111 0.318734 0.0832822
lclavicle 7.33359e-015 6.51704e-015 0
lhumerus -58.558 -46.6285 115.438
lradius 55.7134 0 0
lwrist 25.4735 0 0
lhand 37.4328 25.1438 0
lfingers 7.12502 0 0
lthumb 60.235 38.6743 0
rclavicle 7.33359e-015 6.51704e-015 0
rhumerus 2.34936 -23.3394 0.435746
rradius 27.594 0 0
rwrist -9.57697 0 0
rhand -30.7221 -42.1381 0
rfingers 7.12502 0 0
rthumb -4.01477 -792.08 0
1057
root 1.21474 15.1656 32.5746 4.9319 -3.47257 363.334
lfemur 8.19364 0.582956 5.48862
ltibia 1.41792 0 0
lfoot -31.1133 -10.7956 0
ltoes -34.3528 0 0
rfemur -30.891 -15.4999 -6.23204
rtibia 49.806 0 0
rfoot -21.9907 5.15246 0
rtoes -41.3376 0 0
lowerback -1.85676 -0.104382 -0.208993
upperback -0.523029 -0.103482 -5.89665
thorax 0.493335 -0.0548214 -5.99322
lowerneck -7.13654 0.790011 6.33658
upperneck 1.56958 0.361638 3.63925
head 1.70996 0.316705 0.0845957
lclavicle 7.67659e-015 7.20304e-015 0
lhumerus -58.5564 -46.6351 115.444
lradius 55.7116 0 0
lwrist 25.4779 0 0
lhand 37.4388 25.1491 0
lfingers 7.12502 0 0
lthumb 60.2402 38.6742 0
rclavicle 7.67659e-015 7.20304e-015 0
rhumerus 2.3379 -23.3261 0.439729
rradius 27.5915 0 0
rwrist -9.55858 0 0
rhand -30.7224 -42.1189 0
rfingers 7.12502 0 0
rthumb -4.01505 -792.061 0
1058
root 1.21661 15.1658 32.5782 4.93416 -3.47561 363.328
lfemur 8.18778 0.587882 5.48106
ltibia 1.45731 0 0
lfoot -31.1401 -10.791 0
ltoes -34.3498 0 0
rfemur -30.8734 -15.4873 -6.23816
rtibia 49.7953 0 0
rfoot -21.9801 5.16597 0
rtoes -41.3024 0 0
lowerback -1.86795 -0.103029 -0.222351
upperback -0.523183 -0.101063 -5.89586
thorax 0.499751 -0.053519 -5.98469
lowerneck -7.13423 0.786936 6.33861
upperneck 1.56756 0.35745 3.645
head 1.70882 0.314675 0.0859092
lclavicle 8.01959e-015 7.88905e-015 0
lhumerus -58.5548 -46.6417 115.45
lradius 55.7098 0 0
lwrist 25.4822 0 0
lhand 37.4448 25.1543 0
lfingers 7.12502 0 0
lthumb 60.2453 38.674 0
rclavicle 8.01959e-015 7.88905e-015 0
rhumerus 2.32644 -23.3127 0.443712
rradius 27.5889 0 0
rwrist -9.54019 0 0
rhand -30.7227 -42.0996 0
rfingers 7.12502 0 0
rthumb -4.01533 -792.041 0
1059
root 1.21848 15.1659 32.5819 4.93641 -3.47865 363.322
lfemur 8.18193 0.592808 5.47351
ltibia 1.49669 0 0
lfoot -31.167 -10.7865 0
ltoes -34.3468 0 0
rfemur -30.8558 -15.4748 -6.24427
rtibia 49.7845 0 0
rfoot -21.9694 5.17948 0
rtoes -41.2672 0 0
lowerback -1.87914 -0.101676 -0.23571
upperback -0.523336 -0.0986436 -5.89506
thorax 0.506168 -0.0522165 -5.97617
lowerneck -7.13192 0.783862 6.34065
upperneck 1.56554 0.353262 3.65075
head 1.70768 0.312646 0.0872227
lclavicle 8.36259e-015 8.57505e-015 0
lhumerus -58.5532 -46.6483 115.456
lradius 55.708 0 0
lwrist 25.4866 0 0
lhand 37.4508 25.1596 0
lfingers 7.12502 0 0
lthumb 60.2504 38.6738 0
rclavicle 8.36259e-015 8.57505e-015 0
rhumerus 2.31498 -23.2993 0.447694
rradius 27.5864 0 0
rwrist -9.52181 0 0
rhand -30.723 -42.0804 0
rfingers 7.12502 0 0
rthumb -4.01561 -792.022 0
1060
root 1.22035 15.1661 32.5856 4.93867 -3.48169 363.316
lfemur 8.17608 0.597735 5.46596
ltibia 1.53608 0 0
lfoot -31.1939 -10.7819 0
ltoes -34.3437 0 0
rfemur -30.8382 -15.4623 -6.25039
rtibia 49.7738 0 0
rfoot -21.9588 5.193 0
rtoes -41.232 0 0
lowerback -1.89033 -0.100323 -0.249069
upperback -0.52349 -0.0962241 -5.89426
thorax 0.512585 -0.0509141 -5.96764
lowerneck -7.12961 0.780787 6.34268
upperneck 1.56353 0.349075 3.6565
head 1.70653 0.310616 0.0885361
lclavicle 8.70559e-015 9.26105e-015 0
lhumerus -58.5516 -46.6549 115.463
lradius 55.7062 0 0
lwrist 25.491 0 0
lhand 37.4567 25.1649 0
lfingers 7.12502 0 0
lthumb 60.2555 38.6736 0
rclavicle 8.70559e-015 9.26105e-015 0
rhumerus 2.30352 -23.286 0.451677
rradius 27.5838 0 0
rwrist -9.50342 0 0
rhand -30.7232 -42.0612 0
rfingers 7.12502 0 0
rthumb -4.01589 -792.003 0
1061
root 1.22222 15.1662 32.5893 4.94092 -3.48474 363.31
lfemur 8.17023 0.602661 5.45841
ltibia 1.57547 0 0
lfoot -31.2207 -10.7774 0
ltoes -34.3407 0 0
rfemur -30.8206 -15.4498 -6.2565
rtibia 49.763 0 0
rfoot -21.9481 5.20651 0
rtoes -41.1967 0 0
lowerback -1.90152 -0.0989702 -0.262428
upperback -0.523644 -0.0938046 -5.89346
thorax 0.519002 -0.0496117 -5.95912
lowerneck -7.1273 0.777712 6.34472
upperneck 1.56151 0.344887 3.66225
head 1.70539 0.308587 0.0898496
lclavicle 9.04859e-015 9.94706e-015 0
lhumerus -58.5501 -46.6616 115.469
lradius 55.7044 0 0
lwrist 25.4954 0 0
lhand 37.4627 25.1701 0
lfingers 7.12502 0 0
lthumb 60.2606 38.6734 0
rclavicle 9.04859e-015 9.94706e-015 0
rhumerus 2.29206 -23.2726 0.45566
rradius 27.5813 0 0
rwrist -9.48503 0 0
rhand -30.7235 -42.0419 0
rfingers 7.12502 0 0
rthumb -4.01617 -791.984 0
1062
root 1.22408 15.1663 32.5929 4.94317 -3.48778 363.304
lfemur 8.16437 0.607587 5.45085
ltibia 1.61485 0 0
lfoot -31.2476 -10.7728 0
ltoes -34.3377 0 0
rfemur -30.8029 -15.4372 -6.26262
rtibia 49.7522 0 0
rfoot -21.9374 5.22002 0
rtoes -41.1615 0 0
lowerback -1.91271 -0.0976173 -0.275787
upperback -0.523798 -0.0913852 -5.89266
thorax 0.525418 -0.0483092 -5.95059
lowerneck -7.12499 0.774638 6.34675
upperneck 1.5595 0.340699 3.668
head 1.70425 0.306558 0.0911631
lclavicle 9.39159e-015 1.06331e-014 0
lhumerus -58.5485 -46.6682 115.475
lradius 55.7026 0 0
lwrist 25.4997 0 0
lhand 37.4687 25.1754 0
lfingers 7.12502 0 0
lthumb 60.2657 38.6732 0
rclavicle 9.39159e-015 1.06331e-014 0
rhumerus 2.2806 -23.2593 0.459643
rradius 27.5787 0 0
rwrist -9.46665 0 0
rhand -30.7238 -42.0227 0
rfingers 7.12502 0 0
rthumb -4.01645 -791.964 0
1063
root 1.22595 15.1665 32.5966 4.94543 -3.49082 363.299
lfemur 8.15852 0.612514 5.4433
ltibia 1.65424 0 0
lfoot -31.2745 -10.7683 0
ltoes -34.3347 0 0
rfemur -30.7853 -15.4247 -6.26873
rtibia 49.7415 0 0
rfoot -21.9268 5.23353 0
rtoes -41.1263 0 0
lowerback -1.9239 -0.0962643 -0.289146
upperback -0.523951 -0.0889657 -5.89186
thorax 0.531835 -0.0470068 -5.94207
lowerneck -7.12268 0.771563 6.34879
upperneck 1.55748 0.336511 3.67375
head 1.7031 0.304528 0.0924766
lclavicle 9.73459e-015 1.13191e-014 0
lhumerus -58.5469 -46.6748 115.482
lradius 55.7008 0 0
lwrist 25.5041 0 0
lhand 37.4747 25.1807 0
lfingers 7.12502 0 0
lthumb 60.2709 38.6731 0
rclavicle 9.73459e-015 1.13191e-014 0
rhumerus 2.26914 -23.2459 0.463625
rradius 27.5762 0 0
rwrist -9.44826 0 0
rhand -30.7241 -42.0035 0
rfingers 7.12502 0 0
rthumb -4.01673 -791.945 0
